<mxfile host="app.diagrams.net" modified="2024-01-19T05:32:12.110Z" agent="Mozilla/5.0 (Windows NT 10.0; Win64; x64) AppleWebKit/537.36 (KHTML, like Gecko) Chrome/120.0.0.0 Safari/537.36" etag="zNTe70mTXulNJACeGKL3" version="22.1.16" type="github">
  <diagram name="第 1 页" id="i-lxzGw9Ts57BTQrFltd">
    <mxGraphModel dx="1435" dy="780" grid="1" gridSize="10" guides="1" tooltips="1" connect="1" arrows="1" fold="1" page="1" pageScale="1" pageWidth="3300" pageHeight="4681" math="0" shadow="0">
      <root>
        <mxCell id="0" />
        <mxCell id="1" parent="0" />
        <mxCell id="GviieAew2-DNCmTbMp6a-58" value="" style="edgeStyle=orthogonalEdgeStyle;rounded=0;orthogonalLoop=1;jettySize=auto;html=1;" edge="1" parent="1" source="GviieAew2-DNCmTbMp6a-41" target="GviieAew2-DNCmTbMp6a-57">
          <mxGeometry relative="1" as="geometry" />
        </mxCell>
        <mxCell id="GviieAew2-DNCmTbMp6a-41" value="提货" style="rounded=1;whiteSpace=wrap;html=1;fillColor=#dae8fc;strokeColor=#6c8ebf;fontStyle=1" vertex="1" parent="1">
          <mxGeometry x="140" y="1010" width="120" height="50" as="geometry" />
        </mxCell>
        <mxCell id="GviieAew2-DNCmTbMp6a-64" value="" style="rounded=0;orthogonalLoop=1;jettySize=auto;html=1;" edge="1" parent="1" source="GviieAew2-DNCmTbMp6a-44" target="GviieAew2-DNCmTbMp6a-63">
          <mxGeometry relative="1" as="geometry" />
        </mxCell>
        <mxCell id="GviieAew2-DNCmTbMp6a-74" value="增加提货单id" style="edgeLabel;html=1;align=center;verticalAlign=middle;resizable=0;points=[];" vertex="1" connectable="0" parent="GviieAew2-DNCmTbMp6a-64">
          <mxGeometry x="-0.2" y="-4" relative="1" as="geometry">
            <mxPoint as="offset" />
          </mxGeometry>
        </mxCell>
        <mxCell id="GviieAew2-DNCmTbMp6a-73" value="" style="edgeStyle=orthogonalEdgeStyle;rounded=0;orthogonalLoop=1;jettySize=auto;html=1;fillColor=#f8cecc;strokeColor=#b85450;" edge="1" parent="1" source="GviieAew2-DNCmTbMp6a-44" target="GviieAew2-DNCmTbMp6a-65">
          <mxGeometry relative="1" as="geometry" />
        </mxCell>
        <mxCell id="GviieAew2-DNCmTbMp6a-76" value="拆分渠道单" style="edgeLabel;html=1;align=center;verticalAlign=middle;resizable=0;points=[];" vertex="1" connectable="0" parent="GviieAew2-DNCmTbMp6a-73">
          <mxGeometry x="0.0609" relative="1" as="geometry">
            <mxPoint as="offset" />
          </mxGeometry>
        </mxCell>
        <mxCell id="GviieAew2-DNCmTbMp6a-44" value="提货单" style="rounded=1;whiteSpace=wrap;html=1;fillColor=#dae8fc;strokeColor=#6c8ebf;fontStyle=1" vertex="1" parent="1">
          <mxGeometry x="140" y="1135" width="120" height="50" as="geometry" />
        </mxCell>
        <mxCell id="GviieAew2-DNCmTbMp6a-60" value="" style="edgeStyle=orthogonalEdgeStyle;rounded=0;orthogonalLoop=1;jettySize=auto;html=1;" edge="1" parent="1" source="GviieAew2-DNCmTbMp6a-57" target="GviieAew2-DNCmTbMp6a-59">
          <mxGeometry relative="1" as="geometry" />
        </mxCell>
        <mxCell id="GviieAew2-DNCmTbMp6a-57" value="计算不同渠道的运费" style="whiteSpace=wrap;html=1;fillColor=#dae8fc;strokeColor=#6c8ebf;rounded=1;fontStyle=1;" vertex="1" parent="1">
          <mxGeometry x="390" y="1005" width="120" height="60" as="geometry" />
        </mxCell>
        <mxCell id="GviieAew2-DNCmTbMp6a-59" value="生成提货单" style="whiteSpace=wrap;html=1;fillColor=#dae8fc;strokeColor=#6c8ebf;rounded=1;fontStyle=1;" vertex="1" parent="1">
          <mxGeometry x="640" y="1005" width="120" height="60" as="geometry" />
        </mxCell>
        <mxCell id="GviieAew2-DNCmTbMp6a-63" value="关联提货赠品" style="whiteSpace=wrap;html=1;fillColor=#dae8fc;strokeColor=#6c8ebf;rounded=1;fontStyle=1;" vertex="1" parent="1">
          <mxGeometry x="390" y="1375" width="120" height="60" as="geometry" />
        </mxCell>
        <mxCell id="GviieAew2-DNCmTbMp6a-67" style="rounded=0;orthogonalLoop=1;jettySize=auto;html=1;" edge="1" parent="1" source="GviieAew2-DNCmTbMp6a-65" target="GviieAew2-DNCmTbMp6a-63">
          <mxGeometry relative="1" as="geometry" />
        </mxCell>
        <mxCell id="GviieAew2-DNCmTbMp6a-68" value="增加渠道单id" style="edgeLabel;html=1;align=center;verticalAlign=middle;resizable=0;points=[];" vertex="1" connectable="0" parent="GviieAew2-DNCmTbMp6a-67">
          <mxGeometry x="-0.2837" y="3" relative="1" as="geometry">
            <mxPoint as="offset" />
          </mxGeometry>
        </mxCell>
        <mxCell id="GviieAew2-DNCmTbMp6a-70" value="" style="edgeStyle=orthogonalEdgeStyle;rounded=0;orthogonalLoop=1;jettySize=auto;html=1;fillColor=#f8cecc;strokeColor=#b85450;" edge="1" parent="1" source="GviieAew2-DNCmTbMp6a-65" target="GviieAew2-DNCmTbMp6a-69">
          <mxGeometry relative="1" as="geometry" />
        </mxCell>
        <mxCell id="GviieAew2-DNCmTbMp6a-77" value="拆分包裹单" style="edgeLabel;html=1;align=center;verticalAlign=middle;resizable=0;points=[];" vertex="1" connectable="0" parent="GviieAew2-DNCmTbMp6a-70">
          <mxGeometry x="-0.3857" relative="1" as="geometry">
            <mxPoint as="offset" />
          </mxGeometry>
        </mxCell>
        <mxCell id="GviieAew2-DNCmTbMp6a-65" value="渠道单" style="rounded=1;whiteSpace=wrap;html=1;fillColor=#dae8fc;strokeColor=#6c8ebf;fontStyle=1" vertex="1" parent="1">
          <mxGeometry x="390" y="1135" width="120" height="50" as="geometry" />
        </mxCell>
        <mxCell id="GviieAew2-DNCmTbMp6a-71" value="" style="rounded=0;orthogonalLoop=1;jettySize=auto;html=1;" edge="1" parent="1" source="GviieAew2-DNCmTbMp6a-69" target="GviieAew2-DNCmTbMp6a-63">
          <mxGeometry relative="1" as="geometry" />
        </mxCell>
        <mxCell id="GviieAew2-DNCmTbMp6a-72" value="增加包裹单id" style="edgeLabel;html=1;align=center;verticalAlign=middle;resizable=0;points=[];" vertex="1" connectable="0" parent="GviieAew2-DNCmTbMp6a-71">
          <mxGeometry x="-0.2381" y="-1" relative="1" as="geometry">
            <mxPoint as="offset" />
          </mxGeometry>
        </mxCell>
        <mxCell id="GviieAew2-DNCmTbMp6a-69" value="包裹单" style="whiteSpace=wrap;html=1;fillColor=#dae8fc;strokeColor=#6c8ebf;rounded=1;fontStyle=1;" vertex="1" parent="1">
          <mxGeometry x="640" y="1130" width="120" height="60" as="geometry" />
        </mxCell>
      </root>
    </mxGraphModel>
  </diagram>
</mxfile>
